<svg width="122" height="45" viewBox="0 0 122 45" fill="none" xmlns="http://www.w3.org/2000/svg">
<path d="M6.77047 5.63941L6.77047 11.9334H14.4161L13.8217 16.9925L6.77047 16.3339L6.77047 28.7252H0L0 0.325882L16.6083 0.325882V6.36549L6.77047 5.63804V5.63941Z" fill="#FF5200"/>
<path d="M33.3156 16.9307C39.2302 21.4081 38.3577 28.8091 38.3577 28.8091H32.1294C32.1294 19.421 25.5957 17.1768 25.5957 17.1768H25.2062V28.8091H18.4357L18.4357 0.32588L28.6933 0.32588C36.4793 0.32588 38.9838 4.39491 38.9838 8.33881C38.9838 15.7384 33.3156 16.9334 33.3156 16.9334V16.9307ZM31.5872 9.98622C31.5872 8.2948 30.1987 6.92517 28.5075 6.92517L25.2076 6.92517V13.0652H28.5075C30.2001 13.0652 31.5872 11.6955 31.5872 9.98622Z" fill="#FF5200"/>
<path d="M69.5542 0.334198V13.8436C69.5542 22.093 76.271 28.8037 84.525 28.8037H89.4666V0.334198L82.6961 0.334198V21.8345C79.0508 21.0011 76.3233 17.7352 76.3233 13.8436V0.334198L69.5529 0.334198H69.5542Z" fill="#FF5200"/>
<path d="M67.8329 14.5476C67.8329 23.387 62.5459 29.0965 54.3663 29.0965C46.1867 29.0965 40.9011 23.3842 40.9011 14.5476C40.9011 5.71095 46.1853 0 54.3663 0C62.5473 0 67.8329 5.7082 67.8329 14.5476ZM61.0625 14.5476C61.0625 9.45682 58.7451 6.76568 54.3663 6.76568C49.9875 6.76568 47.6715 9.45545 47.6715 14.5476C47.6715 19.6397 49.9875 22.3309 54.3663 22.3309C58.7451 22.3309 61.0625 19.6383 61.0625 14.5476Z" fill="#FF5200"/>
<path d="M119.451 14.5689C119.451 23.4213 114.152 29.1392 105.955 29.1392C97.7581 29.1392 92.4611 23.4185 92.4611 14.5689C92.4611 5.71935 97.7581 2.67029e-05 105.955 2.67029e-05C114.152 2.67029e-05 119.451 5.71659 119.451 14.5689ZM112.666 14.5689C112.666 9.47071 110.343 6.77562 105.955 6.77562C101.567 6.77562 99.2461 9.46934 99.2461 14.5689C99.2461 19.6685 101.567 22.3636 105.955 22.3636C110.343 22.3636 112.666 19.6672 112.666 14.5689Z" fill="url(#paint0_linear_121_855)"/>
<path d="M91.373 29.708C92.1177 30.0881 93.0016 30.6651 93.8181 31.0645C95.193 31.7352 96.5858 32.2985 98.0021 32.7846C105.557 35.3833 113.097 34.5129 120.19 30.9227C120.339 30.8469 121.019 30.3098 121.154 30.4462C121.143 30.5137 121.122 30.6156 121.078 30.734C121.031 30.8359 120.977 30.9406 120.917 31.0452C120.569 31.6471 120.114 32.0602 119.725 32.337C115.118 35.6105 109.761 36.485 109.761 36.485C108.595 36.6599 101.968 37.6528 99.8101 35.8377C99.8101 35.8377 98.5386 34.7691 97.6105 34.9743C97.4422 35.0114 96.9913 35.2469 96.8878 35.353C96.8768 35.364 96.7886 35.459 96.6575 35.5706C96.6548 35.5733 96.652 35.5747 96.652 35.5761C95.4991 36.5594 94.8399 38.6981 94.8399 38.6981C94.3642 40.2928 94.811 41.9661 93.9959 43.408C93.7877 43.7757 93.3809 44.3871 92.6169 44.7383C91.515 45.2451 90.1056 44.982 89.2423 44.2411C89.1017 44.1199 89.0093 44.0153 88.9141 43.9065C88.1377 43.0237 87.8743 42.0597 87.8329 41.6521C87.6798 40.1276 88.128 38.0563 89.3002 36.5139C90.3856 35.0844 91.9136 34.1783 93.4954 33.2404C93.745 33.0917 93.956 32.9746 94.1008 32.8948C93.8401 32.6675 93.6415 32.4747 93.5188 32.3535C92.7603 31.603 92.4666 31.1279 91.4861 30.0454C91.3537 29.8994 91.2447 29.7824 91.184 29.7177C91.2006 29.6447 91.3192 29.6805 91.3744 29.708H91.373ZM91.4116 37.8319C91.395 38.0288 91.3881 38.2299 91.3881 38.2299C91.3799 38.4736 91.3854 38.6802 91.3937 38.8413H91.6033C91.6226 38.8083 91.6502 38.7573 91.675 38.6926C91.7053 38.6113 91.7177 38.5494 91.7191 38.5397C91.7301 38.4874 92.1687 36.5415 93.6236 35.2662C94.3269 34.6493 94.68 34.3408 95.0275 34.2568C95.1047 34.2389 95.4205 34.1741 95.4964 33.9621C95.5184 33.9015 95.5143 33.8477 95.5102 33.8133C95.484 33.5324 95.1792 33.3671 95.1102 33.3327C94.9103 33.2322 94.7241 33.239 94.6248 33.2446C94.4386 33.2542 94.298 33.3079 94.167 33.3657C93.9353 33.4677 93.625 33.6054 93.2981 33.8684C92.45 34.5542 91.9315 35.7441 91.8887 35.8446C91.8887 35.8446 91.5067 36.7412 91.4116 37.8305V37.8319Z" fill="url(#paint1_linear_121_855)"/>
<path d="M84.788 32.6193C84.8735 32.6757 84.9272 32.7377 84.981 32.8066C85.4058 33.3423 85.4871 33.7899 85.7478 34.1989C85.8664 34.3848 86.0746 34.6437 86.4511 34.8861L87.0124 35.1904C86.5835 35.2951 85.8981 35.3887 85.1244 35.178C84.9659 35.134 83.6392 34.7718 83.4006 33.9455C83.3606 33.8064 83.3551 33.6659 83.3537 33.6356C83.3468 33.4538 83.3289 32.9181 83.7399 32.6317C84.0639 32.4058 84.5121 32.4361 84.7866 32.6207L84.788 32.6193Z" fill="#FF5200"/>
<path d="M84.6088 37.6445C84.6543 37.6142 84.6832 37.5812 84.7122 37.544C84.9411 37.2562 84.9839 37.0152 85.1245 36.7962C85.188 36.6957 85.2997 36.5566 85.5024 36.4271L85.8044 36.2632C85.5741 36.2068 85.2059 36.1558 84.7894 36.2701C84.7039 36.2935 83.9909 36.4891 83.8627 36.9325C83.8406 37.0069 83.8379 37.0826 83.8379 37.0992C83.8351 37.1969 83.8241 37.4848 84.0447 37.639C84.2185 37.7602 84.4598 37.7437 84.6074 37.6445H84.6088Z" fill="#FF5200"/>
<defs>
<linearGradient id="paint0_linear_121_855" x1="116.38" y1="1.90586" x2="96.4329" y2="5.55795" gradientUnits="userSpaceOnUse">
<stop stop-color="#8FEF3B"/>
<stop offset="0.364398" stop-color="#FFD448"/>
<stop offset="1" stop-color="#FF5200"/>
</linearGradient>
<linearGradient id="paint1_linear_121_855" x1="116.028" y1="31.4179" x2="86.3033" y2="35.9233" gradientUnits="userSpaceOnUse">
<stop stop-color="#8FEF3B"/>
<stop offset="0.529716" stop-color="#FFD448"/>
<stop offset="1" stop-color="#D8420D"/>
</linearGradient>
</defs>
</svg>
